<mxfile host="app.diagrams.net" modified="2023-07-04T17:26:51.808Z" agent="Mozilla/5.0 (Windows NT 10.0; Win64; x64) AppleWebKit/537.36 (KHTML, like Gecko) Chrome/114.0.0.0 Safari/537.36" etag="cypfjqG_CewFnkVza7ui" version="21.5.2" type="google">
  <diagram id="C5RBs43oDa-KdzZeNtuy" name="Page-1">
    <mxGraphModel grid="1" page="1" gridSize="10" guides="1" tooltips="1" connect="1" arrows="1" fold="1" pageScale="1" pageWidth="827" pageHeight="1169" math="0" shadow="0">
      <root>
        <mxCell id="WIyWlLk6GJQsqaUBKTNV-0" />
        <mxCell id="WIyWlLk6GJQsqaUBKTNV-1" parent="WIyWlLk6GJQsqaUBKTNV-0" />
        <mxCell id="zkfFHV4jXpPFQw0GAbJ--0" value="Grid" style="swimlane;fontStyle=2;align=center;verticalAlign=top;childLayout=stackLayout;horizontal=1;startSize=26;horizontalStack=0;resizeParent=1;resizeLast=0;collapsible=1;marginBottom=0;rounded=0;shadow=0;strokeWidth=1;" vertex="1" parent="WIyWlLk6GJQsqaUBKTNV-1">
          <mxGeometry x="800" y="560" width="360" height="400" as="geometry">
            <mxRectangle x="230" y="140" width="160" height="26" as="alternateBounds" />
          </mxGeometry>
        </mxCell>
        <mxCell id="zkfFHV4jXpPFQw0GAbJ--3" value="#    colonne: int = 4{readOnly}&#xa;-     gridSize: int = 100&#xa;#    id_old: int = 0&#xa;-     I: Level&#xa;#    mat: int([][]) = new int[righe][colonne]&#xa;#    mosse: List&lt;Mossa&gt; = new ArrayList&lt;&gt;()&#xa;-     moves: Text&#xa;#    nome_file: String&#xa;-    num_mosse: int = 0&#xa;#    pezzi: List&lt;Shape&gt; = new ArrayList&lt;&gt;()&#xa;#    rectangles: ArrayList&lt;GeometricShape&gt; = new ArraryList&lt;&gt;()&#xa;#    righe: int = 5{readOnly}&#xa;#    salvataggio: FileS&#xa;#    victory: short = 0" style="text;align=left;verticalAlign=top;spacingLeft=4;spacingRight=4;overflow=hidden;rotatable=0;points=[[0,0.5],[1,0.5]];portConstraint=eastwest;rounded=0;shadow=0;html=0;" vertex="1" parent="zkfFHV4jXpPFQw0GAbJ--0">
          <mxGeometry y="26" width="360" height="214" as="geometry" />
        </mxCell>
        <mxCell id="p9OMG6d54hMxFC47V146-3" value="#&lt;span style=&quot;white-space: pre;&quot;&gt;&#x9;&lt;/span&gt;add_move(): void&lt;br&gt;+&lt;span style=&quot;white-space: pre;&quot;&gt;&#x9;&lt;/span&gt;getNumMove(): int&lt;br&gt;+&lt;span style=&quot;white-space: pre;&quot;&gt;&#x9;&lt;/span&gt;Grid(Text)&lt;br&gt;+&lt;span style=&quot;white-space: pre;&quot;&gt;&#x9;&lt;/span&gt;imposta_formazione(int): void&lt;br&gt;+&lt;span style=&quot;white-space: pre;&quot;&gt;&#x9;&lt;/span&gt;next_move(): void&lt;br&gt;+&lt;span style=&quot;white-space: pre;&quot;&gt;&#x9;&lt;/span&gt;resumegames(FileS): void&lt;br&gt;+&lt;span style=&quot;white-space: pre;&quot;&gt;&#x9;&lt;/span&gt;save_game(): void&lt;br&gt;+&lt;span style=&quot;white-space: pre;&quot;&gt;&#x9;&lt;/span&gt;toString(): String&lt;br&gt;+&lt;span style=&quot;white-space: pre;&quot;&gt;&#x9;&lt;/span&gt;undo(): void&lt;br&gt;#&lt;span style=&quot;white-space: pre;&quot;&gt;&#x9;&lt;/span&gt;victory(): void" style="whiteSpace=wrap;html=1;align=left;horizontal=1;labelPosition=center;verticalLabelPosition=middle;verticalAlign=top;textDirection=ltr;" vertex="1" parent="zkfFHV4jXpPFQw0GAbJ--0">
          <mxGeometry y="240" width="360" height="160" as="geometry" />
        </mxCell>
        <mxCell id="zkfFHV4jXpPFQw0GAbJ--6" value="FileS" style="swimlane;fontStyle=0;align=center;verticalAlign=top;childLayout=stackLayout;horizontal=1;startSize=26;horizontalStack=0;resizeParent=1;resizeLast=0;collapsible=1;marginBottom=0;rounded=0;shadow=0;strokeWidth=1;" vertex="1" parent="WIyWlLk6GJQsqaUBKTNV-1">
          <mxGeometry x="360" y="660" width="274" height="270" as="geometry">
            <mxRectangle x="130" y="380" width="160" height="26" as="alternateBounds" />
          </mxGeometry>
        </mxCell>
        <mxCell id="zkfFHV4jXpPFQw0GAbJ--7" value="#    contenuto: List&lt;String&gt; = new ArrayList&lt;&gt;()&#xa;-    nome: String" style="text;align=left;verticalAlign=top;spacingLeft=4;spacingRight=4;overflow=hidden;rotatable=0;points=[[0,0.5],[1,0.5]];portConstraint=eastwest;" vertex="1" parent="zkfFHV4jXpPFQw0GAbJ--6">
          <mxGeometry y="26" width="274" height="34" as="geometry" />
        </mxCell>
        <mxCell id="zkfFHV4jXpPFQw0GAbJ--9" value="" style="line;html=1;strokeWidth=1;align=left;verticalAlign=middle;spacingTop=-1;spacingLeft=3;spacingRight=3;rotatable=0;labelPosition=right;points=[];portConstraint=eastwest;" vertex="1" parent="zkfFHV4jXpPFQw0GAbJ--6">
          <mxGeometry y="60" width="274" height="8" as="geometry" />
        </mxCell>
        <mxCell id="zkfFHV4jXpPFQw0GAbJ--11" value="+    add(Mossa): void&#xa;+    add_mossa(int): void&#xa;+    add(String): void&#xa;+    crea_file(): void&#xa;+    FileS(String)&#xa;+    find_move(String): Mossa&#xa;+    get_move(int): Mossa&#xa;+    getLevel(): int&#xa;+    getNumMove(): int&#xa;+    imposta_formazione(int): void&#xa;-    index(int, int): int[]&#xa;+    print(): void&#xa;+    remove(): void" style="text;align=left;verticalAlign=top;spacingLeft=4;spacingRight=4;overflow=hidden;rotatable=0;points=[[0,0.5],[1,0.5]];portConstraint=eastwest;" vertex="1" parent="zkfFHV4jXpPFQw0GAbJ--6">
          <mxGeometry y="68" width="274" height="202" as="geometry" />
        </mxCell>
        <mxCell id="5G5loBA5OLO2QzO4TFht-1" value="" style="endArrow=none;html=1;rounded=0;exitX=0.998;exitY=0.318;exitDx=0;exitDy=0;exitPerimeter=0;entryX=-0.002;entryY=0.959;entryDx=0;entryDy=0;entryPerimeter=0;" edge="1" parent="WIyWlLk6GJQsqaUBKTNV-1" source="zkfFHV4jXpPFQw0GAbJ--11" target="zkfFHV4jXpPFQw0GAbJ--3">
          <mxGeometry width="50" height="50" relative="1" as="geometry">
            <mxPoint x="810" y="810" as="sourcePoint" />
            <mxPoint x="800" y="760" as="targetPoint" />
          </mxGeometry>
        </mxCell>
        <mxCell id="5G5loBA5OLO2QzO4TFht-367" value="Controller" style="swimlane;fontStyle=0;childLayout=stackLayout;horizontal=1;startSize=30;horizontalStack=0;resizeParent=1;resizeParentMax=0;resizeLast=0;collapsible=1;marginBottom=0;whiteSpace=wrap;html=1;verticalAlign=top;" vertex="1" parent="WIyWlLk6GJQsqaUBKTNV-1">
          <mxGeometry x="-270" y="640" width="390" height="370" as="geometry" />
        </mxCell>
        <mxCell id="5G5loBA5OLO2QzO4TFht-369" value="-&lt;span style=&quot;white-space: pre;&quot;&gt;&#x9;&lt;/span&gt;gameViewer: AnchorPane&lt;br&gt;-&lt;span style=&quot;white-space: pre;&quot;&gt;&#x9;&lt;/span&gt;grid: GraphicGrid&lt;br&gt;-&lt;span style=&quot;white-space: pre;&quot;&gt;&#x9;&lt;/span&gt;level: int=1&lt;br&gt;-&lt;span style=&quot;white-space: pre;&quot;&gt;&#x9;&lt;/span&gt;move: Label&lt;br&gt;-&lt;span style=&quot;white-space: pre;&quot;&gt;&#x9;&lt;/span&gt;moves: Text&lt;br&gt;-&lt;span style=&quot;white-space: pre;&quot;&gt;&#x9;&lt;/span&gt;salv: FileS&lt;br&gt;-&lt;span style=&quot;white-space: pre;&quot;&gt;&#x9;&lt;/span&gt;saver: ScrollPane&lt;br&gt;-&lt;span style=&quot;white-space: pre;&quot;&gt;&#x9;&lt;/span&gt;scene: Scene&lt;br&gt;-&lt;span style=&quot;white-space: pre;&quot;&gt;&#x9;&lt;/span&gt;ScrollSave: AnchorPane&lt;br&gt;-&lt;span style=&quot;white-space: pre;&quot;&gt;&#x9;&lt;/span&gt;stage: Stage" style="text;strokeColor=none;fillColor=none;align=left;verticalAlign=top;spacingLeft=4;spacingRight=4;overflow=hidden;points=[[0,0.5],[1,0.5]];portConstraint=eastwest;rotatable=0;whiteSpace=wrap;html=1;" vertex="1" parent="5G5loBA5OLO2QzO4TFht-367">
          <mxGeometry y="30" width="390" height="160" as="geometry" />
        </mxCell>
        <mxCell id="5G5loBA5OLO2QzO4TFht-373" value="+&lt;span style=&quot;white-space: pre;&quot;&gt;&#x9;&lt;/span&gt;initialize(URL, ResourceBundle): void&lt;br&gt;+&lt;span style=&quot;white-space: pre;&quot;&gt;&#x9;&lt;/span&gt;level2(ActionEvent): void&lt;br&gt;+&lt;span style=&quot;white-space: pre;&quot;&gt;&#x9;&lt;/span&gt;level3(ActionEvent): void&lt;br&gt;+&lt;span style=&quot;white-space: pre;&quot;&gt;&#x9;&lt;/span&gt;nextBestMove(ActionEvent): void&lt;br&gt;+&lt;span style=&quot;white-space: pre;&quot;&gt;&#x9;&lt;/span&gt;previousMove(ActionEvent): void&lt;br&gt;+&lt;span style=&quot;white-space: pre;&quot;&gt;&#x9;&lt;/span&gt;reset(ActionEvent): void&lt;br&gt;+&lt;span style=&quot;white-space: pre;&quot;&gt;&#x9;&lt;/span&gt;saveGame(ActionEvent): void&lt;br&gt;+&lt;span style=&quot;white-space: pre;&quot;&gt;&#x9;&lt;/span&gt;switchToHowToPlay(ActionEvent): void&lt;br&gt;+&lt;span style=&quot;white-space: pre;&quot;&gt;&#x9;&lt;/span&gt;switchToMenu(ActionEvent): void&lt;br&gt;+&lt;span style=&quot;white-space: pre;&quot;&gt;&#x9;&lt;/span&gt;switchToPlay(ActionEvent): void&lt;br&gt;+&lt;span style=&quot;white-space: pre;&quot;&gt;&#x9;&lt;/span&gt;switchToResumeGame(ActionEvent): void&lt;br&gt;+&lt;span style=&quot;white-space: pre;&quot;&gt;&#x9;&lt;/span&gt;victoryOK(ActionEvent): void" style="rounded=0;whiteSpace=wrap;html=1;align=left;verticalAlign=top;" vertex="1" parent="5G5loBA5OLO2QzO4TFht-367">
          <mxGeometry y="190" width="390" height="180" as="geometry" />
        </mxCell>
        <mxCell id="5G5loBA5OLO2QzO4TFht-374" value="" style="endArrow=none;html=1;rounded=0;entryX=0.009;entryY=0.262;entryDx=0;entryDy=0;entryPerimeter=0;exitX=1.009;exitY=0.699;exitDx=0;exitDy=0;exitPerimeter=0;" edge="1" parent="WIyWlLk6GJQsqaUBKTNV-1" source="5G5loBA5OLO2QzO4TFht-369" target="zkfFHV4jXpPFQw0GAbJ--11">
          <mxGeometry width="50" height="50" relative="1" as="geometry">
            <mxPoint x="90" y="840" as="sourcePoint" />
            <mxPoint x="140" y="790" as="targetPoint" />
          </mxGeometry>
        </mxCell>
        <mxCell id="5G5loBA5OLO2QzO4TFht-376" value="-salvataggio" style="text;html=1;strokeColor=none;fillColor=none;align=center;verticalAlign=middle;whiteSpace=wrap;rounded=0;" vertex="1" parent="WIyWlLk6GJQsqaUBKTNV-1">
          <mxGeometry x="290" y="750" width="70" height="30" as="geometry" />
        </mxCell>
        <mxCell id="5G5loBA5OLO2QzO4TFht-378" value="PrintMessage" style="swimlane;fontStyle=0;childLayout=stackLayout;horizontal=1;startSize=30;horizontalStack=0;resizeParent=1;resizeParentMax=0;resizeLast=0;collapsible=1;marginBottom=0;whiteSpace=wrap;html=1;" vertex="1" parent="WIyWlLk6GJQsqaUBKTNV-1">
          <mxGeometry x="-670" y="790" width="230" height="60" as="geometry" />
        </mxCell>
        <mxCell id="5G5loBA5OLO2QzO4TFht-379" value="+&lt;span style=&quot;white-space: pre;&quot;&gt;&#x9;&lt;/span&gt;showMessage(Stage, String): void" style="text;strokeColor=none;fillColor=none;align=left;verticalAlign=middle;spacingLeft=4;spacingRight=4;overflow=hidden;points=[[0,0.5],[1,0.5]];portConstraint=eastwest;rotatable=0;whiteSpace=wrap;html=1;" vertex="1" parent="5G5loBA5OLO2QzO4TFht-378">
          <mxGeometry y="30" width="230" height="30" as="geometry" />
        </mxCell>
        <mxCell id="5G5loBA5OLO2QzO4TFht-382" value="" style="endArrow=none;html=1;rounded=0;exitX=1;exitY=0.5;exitDx=0;exitDy=0;entryX=0.005;entryY=1.017;entryDx=0;entryDy=0;entryPerimeter=0;" edge="1" parent="WIyWlLk6GJQsqaUBKTNV-1" source="5G5loBA5OLO2QzO4TFht-379" target="5G5loBA5OLO2QzO4TFht-369">
          <mxGeometry width="50" height="50" relative="1" as="geometry">
            <mxPoint x="-120" y="910" as="sourcePoint" />
            <mxPoint x="-70" y="860" as="targetPoint" />
          </mxGeometry>
        </mxCell>
        <mxCell id="5G5loBA5OLO2QzO4TFht-385" value="GraphicGrid" style="swimlane;fontStyle=0;childLayout=stackLayout;horizontal=1;startSize=30;horizontalStack=0;resizeParent=1;resizeParentMax=0;resizeLast=0;collapsible=1;marginBottom=0;whiteSpace=wrap;html=1;verticalAlign=top;" vertex="1" parent="WIyWlLk6GJQsqaUBKTNV-1">
          <mxGeometry x="140" y="390" width="210" height="150" as="geometry" />
        </mxCell>
        <mxCell id="5G5loBA5OLO2QzO4TFht-386" value="-&lt;span style=&quot;white-space: pre;&quot;&gt;&#x9;&lt;/span&gt;gameViewer: AnchorPane&lt;br&gt;-&lt;span style=&quot;white-space: pre;&quot;&gt;&#x9;&lt;/span&gt;gridSize: int = 100&lt;br&gt;-&lt;span style=&quot;white-space: pre;&quot;&gt;&#x9;&lt;/span&gt;mouseX: double&lt;br&gt;-&lt;span style=&quot;white-space: pre;&quot;&gt;&#x9;&lt;/span&gt;mouseY: double" style="text;strokeColor=none;fillColor=none;align=left;verticalAlign=top;spacingLeft=4;spacingRight=4;overflow=hidden;points=[[0,0.5],[1,0.5]];portConstraint=eastwest;rotatable=0;whiteSpace=wrap;html=1;" vertex="1" parent="5G5loBA5OLO2QzO4TFht-385">
          <mxGeometry y="30" width="210" height="70" as="geometry" />
        </mxCell>
        <mxCell id="5G5loBA5OLO2QzO4TFht-387" value="+&lt;span style=&quot;white-space: pre;&quot;&gt;&#x9;&lt;/span&gt;drag(GreometricShape): void&lt;br&gt;+&lt;span style=&quot;white-space: pre;&quot;&gt;&#x9;&lt;/span&gt;getGamerView(): AnchorPane&lt;br&gt;+&lt;span style=&quot;white-space: pre;&quot;&gt;&#x9;&lt;/span&gt;GraphicGrid(Text)" style="text;strokeColor=none;fillColor=none;align=left;verticalAlign=top;spacingLeft=4;spacingRight=4;overflow=hidden;points=[[0,0.5],[1,0.5]];portConstraint=eastwest;rotatable=0;whiteSpace=wrap;html=1;" vertex="1" parent="5G5loBA5OLO2QzO4TFht-385">
          <mxGeometry y="100" width="210" height="50" as="geometry" />
        </mxCell>
        <mxCell id="5G5loBA5OLO2QzO4TFht-395" value="" style="endArrow=none;html=1;rounded=0;exitX=-0.007;exitY=-0.016;exitDx=0;exitDy=0;exitPerimeter=0;entryX=1;entryY=0.989;entryDx=0;entryDy=0;entryPerimeter=0;" edge="1" parent="5G5loBA5OLO2QzO4TFht-385" source="5G5loBA5OLO2QzO4TFht-387" target="5G5loBA5OLO2QzO4TFht-386">
          <mxGeometry width="50" height="50" relative="1" as="geometry">
            <mxPoint x="340" y="250" as="sourcePoint" />
            <mxPoint x="390" y="200" as="targetPoint" />
          </mxGeometry>
        </mxCell>
        <mxCell id="5G5loBA5OLO2QzO4TFht-389" value="" style="endArrow=none;html=1;rounded=0;entryX=-0.003;entryY=1.056;entryDx=0;entryDy=0;entryPerimeter=0;exitX=0.5;exitY=0;exitDx=0;exitDy=0;" edge="1" parent="WIyWlLk6GJQsqaUBKTNV-1" source="5G5loBA5OLO2QzO4TFht-367" target="5G5loBA5OLO2QzO4TFht-387">
          <mxGeometry width="50" height="50" relative="1" as="geometry">
            <mxPoint x="70" y="720" as="sourcePoint" />
            <mxPoint x="120" y="670" as="targetPoint" />
          </mxGeometry>
        </mxCell>
        <mxCell id="5G5loBA5OLO2QzO4TFht-390" value="-grid" style="text;html=1;strokeColor=none;fillColor=none;align=center;verticalAlign=middle;whiteSpace=wrap;rounded=0;rotation=0;" vertex="1" parent="WIyWlLk6GJQsqaUBKTNV-1">
          <mxGeometry x="90" y="530" width="40" height="30" as="geometry" />
        </mxCell>
        <mxCell id="5G5loBA5OLO2QzO4TFht-391" value="GeometricShape" style="swimlane;fontStyle=0;childLayout=stackLayout;horizontal=1;startSize=30;horizontalStack=0;resizeParent=1;resizeParentMax=0;resizeLast=0;collapsible=1;marginBottom=0;whiteSpace=wrap;html=1;" vertex="1" parent="WIyWlLk6GJQsqaUBKTNV-1">
          <mxGeometry x="800" y="270" width="260" height="180" as="geometry" />
        </mxCell>
        <mxCell id="5G5loBA5OLO2QzO4TFht-392" value="-&lt;span style=&quot;white-space: pre;&quot;&gt;&#x9;&lt;/span&gt;gridX: int&lt;br&gt;-&lt;span style=&quot;white-space: pre;&quot;&gt;&#x9;&lt;/span&gt;gridY: int&lt;br&gt;-&lt;span style=&quot;white-space: pre;&quot;&gt;&#x9;&lt;/span&gt;id: int&lt;br&gt;-&lt;span style=&quot;white-space: pre;&quot;&gt;&#x9;&lt;/span&gt;rectangle: Rectangle&lt;br&gt;" style="text;strokeColor=none;fillColor=none;align=left;verticalAlign=top;spacingLeft=4;spacingRight=4;overflow=hidden;points=[[0,0.5],[1,0.5]];portConstraint=eastwest;rotatable=0;whiteSpace=wrap;html=1;" vertex="1" parent="5G5loBA5OLO2QzO4TFht-391">
          <mxGeometry y="30" width="260" height="70" as="geometry" />
        </mxCell>
        <mxCell id="5G5loBA5OLO2QzO4TFht-393" value="+&lt;span style=&quot;white-space: pre;&quot;&gt;&#x9;&lt;/span&gt;GeometricShape(int, int, int, int, Color, int)&lt;br&gt;+&lt;span style=&quot;white-space: pre;&quot;&gt;&#x9;&lt;/span&gt;getID(): int&lt;br&gt;+&lt;span style=&quot;white-space: pre;&quot;&gt;&#x9;&lt;/span&gt;getRectangle(): Rectangle&lt;br&gt;+&lt;span style=&quot;white-space: pre;&quot;&gt;&#x9;&lt;/span&gt;getX(): int&lt;br&gt;+&lt;span style=&quot;white-space: pre;&quot;&gt;&#x9;&lt;/span&gt;getY(): int" style="text;strokeColor=none;fillColor=none;align=left;verticalAlign=top;spacingLeft=4;spacingRight=4;overflow=hidden;points=[[0,0.5],[1,0.5]];portConstraint=eastwest;rotatable=0;whiteSpace=wrap;html=1;" vertex="1" parent="5G5loBA5OLO2QzO4TFht-391">
          <mxGeometry y="100" width="260" height="80" as="geometry" />
        </mxCell>
        <mxCell id="5G5loBA5OLO2QzO4TFht-402" value="" style="endArrow=none;html=1;rounded=0;entryX=1;entryY=0;entryDx=0;entryDy=0;entryPerimeter=0;exitX=0.004;exitY=-0.02;exitDx=0;exitDy=0;exitPerimeter=0;" edge="1" parent="5G5loBA5OLO2QzO4TFht-391" source="5G5loBA5OLO2QzO4TFht-393" target="5G5loBA5OLO2QzO4TFht-393">
          <mxGeometry width="50" height="50" relative="1" as="geometry">
            <mxPoint x="220" y="250" as="sourcePoint" />
            <mxPoint x="270" y="200" as="targetPoint" />
          </mxGeometry>
        </mxCell>
        <mxCell id="5G5loBA5OLO2QzO4TFht-399" value="" style="endArrow=block;html=1;rounded=0;exitX=1.028;exitY=0.981;exitDx=0;exitDy=0;exitPerimeter=0;endFill=0;" edge="1" parent="WIyWlLk6GJQsqaUBKTNV-1" source="5G5loBA5OLO2QzO4TFht-387">
          <mxGeometry width="50" height="50" relative="1" as="geometry">
            <mxPoint x="690" y="550" as="sourcePoint" />
            <mxPoint x="800" y="640" as="targetPoint" />
          </mxGeometry>
        </mxCell>
        <mxCell id="5G5loBA5OLO2QzO4TFht-403" value="Level" style="swimlane;fontStyle=0;childLayout=stackLayout;horizontal=1;startSize=30;horizontalStack=0;resizeParent=1;resizeParentMax=0;resizeLast=0;collapsible=1;marginBottom=0;whiteSpace=wrap;html=1;verticalAlign=top;" vertex="1" parent="WIyWlLk6GJQsqaUBKTNV-1">
          <mxGeometry x="1300" y="420" width="360" height="180" as="geometry" />
        </mxCell>
        <mxCell id="5G5loBA5OLO2QzO4TFht-404" value="-&lt;span style=&quot;white-space: pre;&quot;&gt;&#x9;&lt;/span&gt;level: int&lt;br&gt;-&lt;span style=&quot;white-space: pre;&quot;&gt;&#x9;&lt;/span&gt;mat: int([][])&lt;br&gt;-&lt;span style=&quot;white-space: pre;&quot;&gt;&#x9;&lt;/span&gt;pieces: List&amp;lt;Shape&amp;gt; = new ArrayList&amp;lt;&amp;gt;()&lt;br&gt;-&lt;span style=&quot;white-space: pre;&quot;&gt;&#x9;&lt;/span&gt;rectangles: ArrayList&amp;lt;GeometricShape&amp;gt; = new ArrayList&amp;lt;&amp;gt;()" style="text;strokeColor=none;fillColor=none;align=left;verticalAlign=top;spacingLeft=4;spacingRight=4;overflow=hidden;points=[[0,0.5],[1,0.5]];portConstraint=eastwest;rotatable=0;whiteSpace=wrap;html=1;" vertex="1" parent="5G5loBA5OLO2QzO4TFht-403">
          <mxGeometry y="30" width="360" height="70" as="geometry" />
        </mxCell>
        <mxCell id="5G5loBA5OLO2QzO4TFht-405" value="+&lt;span style=&quot;white-space: pre;&quot;&gt;&#x9;&lt;/span&gt;getGrid(): int[]&lt;br&gt;+&lt;span style=&quot;white-space: pre;&quot;&gt;&#x9;&lt;/span&gt;getPieces(): List&amp;lt;Shape&amp;gt;&lt;br&gt;+&lt;span style=&quot;white-space: pre;&quot;&gt;&#x9;&lt;/span&gt;getRectangles(): ArrayList&amp;lt;GeometricShape&amp;gt;&lt;br&gt;+&lt;span style=&quot;white-space: pre;&quot;&gt;&#x9;&lt;/span&gt;Level(int, int, int)&lt;br&gt;-&lt;span style=&quot;white-space: pre;&quot;&gt;&#x9;&lt;/span&gt;set_level(): void&lt;br&gt;" style="text;strokeColor=none;fillColor=none;align=left;verticalAlign=top;spacingLeft=4;spacingRight=4;overflow=hidden;points=[[0,0.5],[1,0.5]];portConstraint=eastwest;rotatable=0;whiteSpace=wrap;html=1;" vertex="1" parent="5G5loBA5OLO2QzO4TFht-403">
          <mxGeometry y="100" width="360" height="80" as="geometry" />
        </mxCell>
        <mxCell id="5G5loBA5OLO2QzO4TFht-410" value="" style="endArrow=none;html=1;rounded=0;exitX=0;exitY=-0.021;exitDx=0;exitDy=0;exitPerimeter=0;" edge="1" parent="5G5loBA5OLO2QzO4TFht-403" source="5G5loBA5OLO2QzO4TFht-405">
          <mxGeometry width="50" height="50" relative="1" as="geometry">
            <mxPoint x="60" y="370" as="sourcePoint" />
            <mxPoint x="360" y="100" as="targetPoint" />
          </mxGeometry>
        </mxCell>
        <mxCell id="5G5loBA5OLO2QzO4TFht-407" value="" style="endArrow=none;html=1;rounded=0;entryX=-0.004;entryY=1.051;entryDx=0;entryDy=0;entryPerimeter=0;exitX=1.007;exitY=0.115;exitDx=0;exitDy=0;exitPerimeter=0;" edge="1" parent="WIyWlLk6GJQsqaUBKTNV-1" source="5G5loBA5OLO2QzO4TFht-393" target="5G5loBA5OLO2QzO4TFht-404">
          <mxGeometry width="50" height="50" relative="1" as="geometry">
            <mxPoint x="1000" y="740" as="sourcePoint" />
            <mxPoint x="1050" y="690" as="targetPoint" />
          </mxGeometry>
        </mxCell>
        <mxCell id="5G5loBA5OLO2QzO4TFht-408" value="" style="endArrow=none;html=1;rounded=0;entryX=-0.008;entryY=0.925;entryDx=0;entryDy=0;entryPerimeter=0;exitX=1.007;exitY=0.779;exitDx=0;exitDy=0;exitPerimeter=0;" edge="1" parent="WIyWlLk6GJQsqaUBKTNV-1" source="zkfFHV4jXpPFQw0GAbJ--3" target="5G5loBA5OLO2QzO4TFht-405">
          <mxGeometry width="50" height="50" relative="1" as="geometry">
            <mxPoint x="1360" y="790" as="sourcePoint" />
            <mxPoint x="1410" y="740" as="targetPoint" />
          </mxGeometry>
        </mxCell>
        <mxCell id="5G5loBA5OLO2QzO4TFht-411" value="Shape" style="swimlane;fontStyle=0;childLayout=stackLayout;horizontal=1;startSize=30;horizontalStack=0;resizeParent=1;resizeParentMax=0;resizeLast=0;collapsible=1;marginBottom=0;whiteSpace=wrap;html=1;" vertex="1" parent="WIyWlLk6GJQsqaUBKTNV-1">
          <mxGeometry x="1350" y="1350" width="260" height="190" as="geometry" />
        </mxCell>
        <mxCell id="5G5loBA5OLO2QzO4TFht-412" value="-&lt;span style=&quot;white-space: pre;&quot;&gt;&#x9;&lt;/span&gt;coord: Coord = new Coord(99,99)&lt;br&gt;-&lt;span style=&quot;white-space: pre;&quot;&gt;&#x9;&lt;/span&gt;dim1: int&lt;br&gt;-&lt;span style=&quot;white-space: pre;&quot;&gt;&#x9;&lt;/span&gt;dim2: int" style="text;strokeColor=none;fillColor=none;align=left;verticalAlign=top;spacingLeft=4;spacingRight=4;overflow=hidden;points=[[0,0.5],[1,0.5]];portConstraint=eastwest;rotatable=0;whiteSpace=wrap;html=1;" vertex="1" parent="5G5loBA5OLO2QzO4TFht-411">
          <mxGeometry y="30" width="260" height="50" as="geometry" />
        </mxCell>
        <mxCell id="5G5loBA5OLO2QzO4TFht-413" value="+&lt;span style=&quot;white-space: pre;&quot;&gt;&#x9;&lt;/span&gt;controlla_mossa(Mossa, int[][]): boolean&lt;br&gt;+&lt;span style=&quot;white-space: pre;&quot;&gt;&#x9;&lt;/span&gt;getCoord(): Coord&lt;br&gt;+&lt;span style=&quot;white-space: pre;&quot;&gt;&#x9;&lt;/span&gt;getDim1(): int&lt;br&gt;+&lt;span style=&quot;white-space: pre;&quot;&gt;&#x9;&lt;/span&gt;getDim2(): int&lt;br&gt;+&lt;span style=&quot;white-space: pre;&quot;&gt;&#x9;&lt;/span&gt;imposta_coord(Mossa, int[][]): short&lt;br&gt;+&lt;span style=&quot;white-space: pre;&quot;&gt;&#x9;&lt;/span&gt;Shape(int, int)&lt;br&gt;+&lt;span style=&quot;white-space: pre;&quot;&gt;&#x9;&lt;/span&gt;Shape(int, int, Coord)" style="text;strokeColor=none;fillColor=none;align=left;verticalAlign=top;spacingLeft=4;spacingRight=4;overflow=hidden;points=[[0,0.5],[1,0.5]];portConstraint=eastwest;rotatable=0;whiteSpace=wrap;html=1;" vertex="1" parent="5G5loBA5OLO2QzO4TFht-411">
          <mxGeometry y="80" width="260" height="110" as="geometry" />
        </mxCell>
        <mxCell id="5G5loBA5OLO2QzO4TFht-427" value="" style="endArrow=none;html=1;rounded=0;exitX=-0.001;exitY=-0.011;exitDx=0;exitDy=0;exitPerimeter=0;entryX=0.997;entryY=1.011;entryDx=0;entryDy=0;entryPerimeter=0;" edge="1" parent="5G5loBA5OLO2QzO4TFht-411" source="5G5loBA5OLO2QzO4TFht-413" target="5G5loBA5OLO2QzO4TFht-412">
          <mxGeometry width="50" height="50" relative="1" as="geometry">
            <mxPoint x="-110" y="160" as="sourcePoint" />
            <mxPoint x="250" y="80" as="targetPoint" />
          </mxGeometry>
        </mxCell>
        <mxCell id="5G5loBA5OLO2QzO4TFht-415" value="" style="endArrow=none;html=1;rounded=0;exitX=0.464;exitY=0.002;exitDx=0;exitDy=0;exitPerimeter=0;" edge="1" parent="WIyWlLk6GJQsqaUBKTNV-1" source="5G5loBA5OLO2QzO4TFht-411">
          <mxGeometry width="50" height="50" relative="1" as="geometry">
            <mxPoint x="1220" y="1000" as="sourcePoint" />
            <mxPoint x="1480" y="600" as="targetPoint" />
          </mxGeometry>
        </mxCell>
        <mxCell id="5G5loBA5OLO2QzO4TFht-416" value="-pieces" style="text;html=1;strokeColor=none;fillColor=none;align=center;verticalAlign=middle;whiteSpace=wrap;rounded=0;" vertex="1" parent="WIyWlLk6GJQsqaUBKTNV-1">
          <mxGeometry x="1410" y="1310" width="60" height="30" as="geometry" />
        </mxCell>
        <mxCell id="5G5loBA5OLO2QzO4TFht-417" value="0..*" style="text;html=1;strokeColor=none;fillColor=none;align=center;verticalAlign=middle;whiteSpace=wrap;rounded=0;" vertex="1" parent="WIyWlLk6GJQsqaUBKTNV-1">
          <mxGeometry x="1485" y="1310" width="30" height="30" as="geometry" />
        </mxCell>
        <mxCell id="5G5loBA5OLO2QzO4TFht-418" value="" style="endArrow=none;html=1;rounded=0;entryX=1;entryY=0.5;entryDx=0;entryDy=0;exitX=-0.005;exitY=0.311;exitDx=0;exitDy=0;exitPerimeter=0;" edge="1" parent="WIyWlLk6GJQsqaUBKTNV-1" source="5G5loBA5OLO2QzO4TFht-412" target="p9OMG6d54hMxFC47V146-3">
          <mxGeometry width="50" height="50" relative="1" as="geometry">
            <mxPoint x="1400" y="990" as="sourcePoint" />
            <mxPoint x="1450" y="940" as="targetPoint" />
          </mxGeometry>
        </mxCell>
        <mxCell id="5G5loBA5OLO2QzO4TFht-419" value="#pezzi" style="text;html=1;strokeColor=none;fillColor=none;align=center;verticalAlign=middle;whiteSpace=wrap;rounded=0;" vertex="1" parent="WIyWlLk6GJQsqaUBKTNV-1">
          <mxGeometry x="1280" y="1340" width="60" height="30" as="geometry" />
        </mxCell>
        <mxCell id="5G5loBA5OLO2QzO4TFht-421" value="0..*" style="text;html=1;strokeColor=none;fillColor=none;align=center;verticalAlign=middle;whiteSpace=wrap;rounded=0;" vertex="1" parent="WIyWlLk6GJQsqaUBKTNV-1">
          <mxGeometry x="1320" y="1320" width="60" height="30" as="geometry" />
        </mxCell>
        <mxCell id="5G5loBA5OLO2QzO4TFht-422" value="Coord" style="swimlane;fontStyle=0;childLayout=stackLayout;horizontal=1;startSize=30;horizontalStack=0;resizeParent=1;resizeParentMax=0;resizeLast=0;collapsible=1;marginBottom=0;whiteSpace=wrap;html=1;" vertex="1" parent="WIyWlLk6GJQsqaUBKTNV-1">
          <mxGeometry x="760" y="1110" width="260" height="230" as="geometry" />
        </mxCell>
        <mxCell id="5G5loBA5OLO2QzO4TFht-423" value="-&lt;span style=&quot;white-space: pre;&quot;&gt;&#x9;&lt;/span&gt;x: int&lt;br&gt;-&lt;span style=&quot;white-space: pre;&quot;&gt;&#x9;&lt;/span&gt;y: int&lt;br&gt;" style="text;strokeColor=none;fillColor=none;align=left;verticalAlign=top;spacingLeft=4;spacingRight=4;overflow=hidden;points=[[0,0.5],[1,0.5]];portConstraint=eastwest;rotatable=0;whiteSpace=wrap;html=1;" vertex="1" parent="5G5loBA5OLO2QzO4TFht-422">
          <mxGeometry y="30" width="260" height="40" as="geometry" />
        </mxCell>
        <mxCell id="5G5loBA5OLO2QzO4TFht-424" value="+&lt;span style=&quot;white-space: pre;&quot;&gt;&#x9;&lt;/span&gt;compare(Coord): boolean&lt;br&gt;+&lt;span style=&quot;white-space: pre;&quot;&gt;&#x9;&lt;/span&gt;Coord(int, int)&lt;br&gt;+&lt;span style=&quot;white-space: pre;&quot;&gt;&#x9;&lt;/span&gt;down(): Coord&lt;br&gt;+&lt;span style=&quot;white-space: pre;&quot;&gt;&#x9;&lt;/span&gt;getX(): int&lt;br&gt;+&lt;span style=&quot;white-space: pre;&quot;&gt;&#x9;&lt;/span&gt;getY(): int&lt;br&gt;+&lt;span style=&quot;white-space: pre;&quot;&gt;&#x9;&lt;/span&gt;left(): Coord&lt;br&gt;+&lt;span style=&quot;white-space: pre;&quot;&gt;&#x9;&lt;/span&gt;right(): Coord&lt;br&gt;+&lt;span style=&quot;white-space: pre;&quot;&gt;&#x9;&lt;/span&gt;setX(int): void&lt;br&gt;+&lt;span style=&quot;white-space: pre;&quot;&gt;&#x9;&lt;/span&gt;setY(int): void&lt;br&gt;+&lt;span style=&quot;white-space: pre;&quot;&gt;&#x9;&lt;/span&gt;up(): Coord" style="text;strokeColor=none;fillColor=none;align=left;verticalAlign=top;spacingLeft=4;spacingRight=4;overflow=hidden;points=[[0,0.5],[1,0.5]];portConstraint=eastwest;rotatable=0;whiteSpace=wrap;html=1;" vertex="1" parent="5G5loBA5OLO2QzO4TFht-422">
          <mxGeometry y="70" width="260" height="160" as="geometry" />
        </mxCell>
        <mxCell id="5G5loBA5OLO2QzO4TFht-426" value="" style="endArrow=none;html=1;rounded=0;exitX=-0.001;exitY=0.003;exitDx=0;exitDy=0;exitPerimeter=0;" edge="1" parent="5G5loBA5OLO2QzO4TFht-422" source="5G5loBA5OLO2QzO4TFht-424">
          <mxGeometry width="50" height="50" relative="1" as="geometry">
            <mxPoint x="40" y="90" as="sourcePoint" />
            <mxPoint x="261" y="70" as="targetPoint" />
          </mxGeometry>
        </mxCell>
        <mxCell id="5G5loBA5OLO2QzO4TFht-428" value="Mossa" style="swimlane;fontStyle=0;childLayout=stackLayout;horizontal=1;startSize=30;horizontalStack=0;resizeParent=1;resizeParentMax=0;resizeLast=0;collapsible=1;marginBottom=0;whiteSpace=wrap;html=1;" vertex="1" parent="WIyWlLk6GJQsqaUBKTNV-1">
          <mxGeometry x="300" y="1330" width="180" height="160" as="geometry" />
        </mxCell>
        <mxCell id="5G5loBA5OLO2QzO4TFht-429" value="#&lt;span style=&quot;white-space: pre;&quot;&gt;&#x9;&lt;/span&gt;c_fin: Coord&lt;br&gt;#&lt;span style=&quot;white-space: pre;&quot;&gt;&#x9;&lt;/span&gt;c_in: Coord&lt;br&gt;#&lt;span style=&quot;white-space: pre;&quot;&gt;&#x9;&lt;/span&gt;dir: char&lt;br&gt;#&lt;span style=&quot;white-space: pre;&quot;&gt;&#x9;&lt;/span&gt;num_pezzo: int&lt;br&gt;" style="text;strokeColor=none;fillColor=none;align=left;verticalAlign=top;spacingLeft=4;spacingRight=4;overflow=hidden;points=[[0,0.5],[1,0.5]];portConstraint=eastwest;rotatable=0;whiteSpace=wrap;html=1;" vertex="1" parent="5G5loBA5OLO2QzO4TFht-428">
          <mxGeometry y="30" width="180" height="70" as="geometry" />
        </mxCell>
        <mxCell id="5G5loBA5OLO2QzO4TFht-430" value="+&lt;span style=&quot;white-space: pre;&quot;&gt;&#x9;&lt;/span&gt;Mossa(Coord, Coord, int)&lt;br&gt;+&lt;span style=&quot;white-space: pre;&quot;&gt;&#x9;&lt;/span&gt;Mossa(Coord, char, int)&lt;br&gt;+&lt;span style=&quot;white-space: pre;&quot;&gt;&#x9;&lt;/span&gt;reverse(): Mossa" style="text;strokeColor=none;fillColor=none;align=left;verticalAlign=top;spacingLeft=4;spacingRight=4;overflow=hidden;points=[[0,0.5],[1,0.5]];portConstraint=eastwest;rotatable=0;whiteSpace=wrap;html=1;" vertex="1" parent="5G5loBA5OLO2QzO4TFht-428">
          <mxGeometry y="100" width="180" height="60" as="geometry" />
        </mxCell>
        <mxCell id="5G5loBA5OLO2QzO4TFht-432" value="" style="endArrow=none;html=1;rounded=0;exitX=-0.009;exitY=0.022;exitDx=0;exitDy=0;exitPerimeter=0;entryX=1;entryY=1.029;entryDx=0;entryDy=0;entryPerimeter=0;" edge="1" parent="5G5loBA5OLO2QzO4TFht-428" source="5G5loBA5OLO2QzO4TFht-430" target="5G5loBA5OLO2QzO4TFht-429">
          <mxGeometry width="50" height="50" relative="1" as="geometry">
            <mxPoint x="130" y="220" as="sourcePoint" />
            <mxPoint x="180" y="100" as="targetPoint" />
          </mxGeometry>
        </mxCell>
        <mxCell id="5G5loBA5OLO2QzO4TFht-434" value="" style="endArrow=none;html=1;rounded=0;entryX=-0.003;entryY=0.089;entryDx=0;entryDy=0;entryPerimeter=0;exitX=1.005;exitY=0.135;exitDx=0;exitDy=0;exitPerimeter=0;" edge="1" parent="WIyWlLk6GJQsqaUBKTNV-1" source="5G5loBA5OLO2QzO4TFht-424" target="5G5loBA5OLO2QzO4TFht-413">
          <mxGeometry width="50" height="50" relative="1" as="geometry">
            <mxPoint x="1010" y="1200" as="sourcePoint" />
            <mxPoint x="1060" y="1160" as="targetPoint" />
          </mxGeometry>
        </mxCell>
        <mxCell id="5G5loBA5OLO2QzO4TFht-435" value="-coord" style="text;html=1;strokeColor=none;fillColor=none;align=center;verticalAlign=middle;whiteSpace=wrap;rounded=0;" vertex="1" parent="WIyWlLk6GJQsqaUBKTNV-1">
          <mxGeometry x="1010" y="1169" width="60" height="30" as="geometry" />
        </mxCell>
        <mxCell id="5G5loBA5OLO2QzO4TFht-436" value="" style="endArrow=none;html=1;rounded=0;entryX=-0.009;entryY=0.094;entryDx=0;entryDy=0;entryPerimeter=0;exitX=1;exitY=0.5;exitDx=0;exitDy=0;" edge="1" parent="WIyWlLk6GJQsqaUBKTNV-1" source="5G5loBA5OLO2QzO4TFht-429" target="5G5loBA5OLO2QzO4TFht-424">
          <mxGeometry width="50" height="50" relative="1" as="geometry">
            <mxPoint x="570" y="1250" as="sourcePoint" />
            <mxPoint x="620" y="1200" as="targetPoint" />
          </mxGeometry>
        </mxCell>
        <mxCell id="5G5loBA5OLO2QzO4TFht-437" value="" style="endArrow=none;html=1;rounded=0;entryX=0;entryY=1;entryDx=0;entryDy=0;exitX=1;exitY=0;exitDx=0;exitDy=0;" edge="1" parent="WIyWlLk6GJQsqaUBKTNV-1" source="5G5loBA5OLO2QzO4TFht-428" target="zkfFHV4jXpPFQw0GAbJ--0">
          <mxGeometry width="50" height="50" relative="1" as="geometry">
            <mxPoint x="570" y="1250" as="sourcePoint" />
            <mxPoint x="620" y="1200" as="targetPoint" />
          </mxGeometry>
        </mxCell>
        <mxCell id="5G5loBA5OLO2QzO4TFht-438" value="#salvataggio" style="text;html=1;strokeColor=none;fillColor=none;align=center;verticalAlign=middle;whiteSpace=wrap;rounded=0;" vertex="1" parent="WIyWlLk6GJQsqaUBKTNV-1">
          <mxGeometry x="634" y="770" width="70" height="30" as="geometry" />
        </mxCell>
        <mxCell id="5G5loBA5OLO2QzO4TFht-439" value="#c_in" style="text;html=1;strokeColor=none;fillColor=none;align=center;verticalAlign=middle;whiteSpace=wrap;rounded=0;" vertex="1" parent="WIyWlLk6GJQsqaUBKTNV-1">
          <mxGeometry x="710" y="1169" width="60" height="30" as="geometry" />
        </mxCell>
        <mxCell id="5G5loBA5OLO2QzO4TFht-440" value="#mosse" style="text;html=1;strokeColor=none;fillColor=none;align=center;verticalAlign=middle;whiteSpace=wrap;rounded=0;" vertex="1" parent="WIyWlLk6GJQsqaUBKTNV-1">
          <mxGeometry x="440" y="1290" width="60" height="30" as="geometry" />
        </mxCell>
        <mxCell id="5G5loBA5OLO2QzO4TFht-441" value="0..*" style="text;html=1;strokeColor=none;fillColor=none;align=center;verticalAlign=middle;whiteSpace=wrap;rounded=0;" vertex="1" parent="WIyWlLk6GJQsqaUBKTNV-1">
          <mxGeometry x="467" y="1320" width="60" height="30" as="geometry" />
        </mxCell>
        <mxCell id="5G5loBA5OLO2QzO4TFht-442" value="1" style="text;html=1;strokeColor=none;fillColor=none;align=center;verticalAlign=middle;whiteSpace=wrap;rounded=0;" vertex="1" parent="WIyWlLk6GJQsqaUBKTNV-1">
          <mxGeometry x="467" y="1390" width="60" height="30" as="geometry" />
        </mxCell>
        <mxCell id="5G5loBA5OLO2QzO4TFht-443" value="1" style="text;html=1;strokeColor=none;fillColor=none;align=center;verticalAlign=middle;whiteSpace=wrap;rounded=0;" vertex="1" parent="WIyWlLk6GJQsqaUBKTNV-1">
          <mxGeometry x="720" y="1190" width="60" height="30" as="geometry" />
        </mxCell>
        <mxCell id="5G5loBA5OLO2QzO4TFht-444" value="1" style="text;html=1;strokeColor=none;fillColor=none;align=center;verticalAlign=middle;whiteSpace=wrap;rounded=0;" vertex="1" parent="WIyWlLk6GJQsqaUBKTNV-1">
          <mxGeometry x="1000" y="1199" width="60" height="30" as="geometry" />
        </mxCell>
        <mxCell id="5G5loBA5OLO2QzO4TFht-445" value="1" style="text;html=1;strokeColor=none;fillColor=none;align=center;verticalAlign=middle;whiteSpace=wrap;rounded=0;" vertex="1" parent="WIyWlLk6GJQsqaUBKTNV-1">
          <mxGeometry x="1300" y="1430" width="60" height="30" as="geometry" />
        </mxCell>
        <mxCell id="5G5loBA5OLO2QzO4TFht-446" value="1" style="text;html=1;strokeColor=none;fillColor=none;align=center;verticalAlign=middle;whiteSpace=wrap;rounded=0;" vertex="1" parent="WIyWlLk6GJQsqaUBKTNV-1">
          <mxGeometry x="1470" y="600" width="60" height="30" as="geometry" />
        </mxCell>
        <mxCell id="5G5loBA5OLO2QzO4TFht-447" value="1" style="text;html=1;strokeColor=none;fillColor=none;align=center;verticalAlign=middle;whiteSpace=wrap;rounded=0;" vertex="1" parent="WIyWlLk6GJQsqaUBKTNV-1">
          <mxGeometry x="1140" y="870" width="60" height="30" as="geometry" />
        </mxCell>
        <mxCell id="5G5loBA5OLO2QzO4TFht-448" value="1" style="text;html=1;strokeColor=none;fillColor=none;align=center;verticalAlign=middle;whiteSpace=wrap;rounded=0;" vertex="1" parent="WIyWlLk6GJQsqaUBKTNV-1">
          <mxGeometry x="1150" y="740" width="60" height="30" as="geometry" />
        </mxCell>
        <mxCell id="5G5loBA5OLO2QzO4TFht-449" value="1" style="text;html=1;strokeColor=none;fillColor=none;align=center;verticalAlign=middle;whiteSpace=wrap;rounded=0;" vertex="1" parent="WIyWlLk6GJQsqaUBKTNV-1">
          <mxGeometry x="1270" y="600" width="60" height="30" as="geometry" />
        </mxCell>
        <mxCell id="5G5loBA5OLO2QzO4TFht-451" value="1" style="text;html=1;strokeColor=none;fillColor=none;align=center;verticalAlign=middle;whiteSpace=wrap;rounded=0;" vertex="1" parent="WIyWlLk6GJQsqaUBKTNV-1">
          <mxGeometry x="1250" y="520" width="60" height="30" as="geometry" />
        </mxCell>
        <mxCell id="5G5loBA5OLO2QzO4TFht-452" value="1" style="text;html=1;strokeColor=none;fillColor=none;align=center;verticalAlign=middle;whiteSpace=wrap;rounded=0;" vertex="1" parent="WIyWlLk6GJQsqaUBKTNV-1">
          <mxGeometry x="1040" y="350" width="60" height="30" as="geometry" />
        </mxCell>
        <mxCell id="5G5loBA5OLO2QzO4TFht-455" value="1" style="text;html=1;strokeColor=none;fillColor=none;align=center;verticalAlign=middle;whiteSpace=wrap;rounded=0;" vertex="1" parent="WIyWlLk6GJQsqaUBKTNV-1">
          <mxGeometry x="340" y="520" width="60" height="30" as="geometry" />
        </mxCell>
        <mxCell id="5G5loBA5OLO2QzO4TFht-456" value="1" style="text;html=1;strokeColor=none;fillColor=none;align=center;verticalAlign=middle;whiteSpace=wrap;rounded=0;" vertex="1" parent="WIyWlLk6GJQsqaUBKTNV-1">
          <mxGeometry x="740" y="610" width="60" height="30" as="geometry" />
        </mxCell>
        <mxCell id="5G5loBA5OLO2QzO4TFht-457" value="1" style="text;html=1;strokeColor=none;fillColor=none;align=center;verticalAlign=middle;whiteSpace=wrap;rounded=0;" vertex="1" parent="WIyWlLk6GJQsqaUBKTNV-1">
          <mxGeometry x="110" y="540" width="60" height="30" as="geometry" />
        </mxCell>
        <mxCell id="5G5loBA5OLO2QzO4TFht-458" value="1" style="text;html=1;strokeColor=none;fillColor=none;align=center;verticalAlign=middle;whiteSpace=wrap;rounded=0;" vertex="1" parent="WIyWlLk6GJQsqaUBKTNV-1">
          <mxGeometry x="-105" y="610" width="60" height="30" as="geometry" />
        </mxCell>
        <mxCell id="5G5loBA5OLO2QzO4TFht-460" value="1" style="text;html=1;strokeColor=none;fillColor=none;align=center;verticalAlign=middle;whiteSpace=wrap;rounded=0;" vertex="1" parent="WIyWlLk6GJQsqaUBKTNV-1">
          <mxGeometry x="-460" y="830" width="60" height="30" as="geometry" />
        </mxCell>
        <mxCell id="5G5loBA5OLO2QzO4TFht-461" value="1" style="text;html=1;strokeColor=none;fillColor=none;align=center;verticalAlign=middle;whiteSpace=wrap;rounded=0;" vertex="1" parent="WIyWlLk6GJQsqaUBKTNV-1">
          <mxGeometry x="-320" y="810" width="60" height="30" as="geometry" />
        </mxCell>
        <mxCell id="5G5loBA5OLO2QzO4TFht-462" value="1" style="text;html=1;strokeColor=none;fillColor=none;align=center;verticalAlign=middle;whiteSpace=wrap;rounded=0;" vertex="1" parent="WIyWlLk6GJQsqaUBKTNV-1">
          <mxGeometry x="100" y="760" width="60" height="30" as="geometry" />
        </mxCell>
        <mxCell id="5G5loBA5OLO2QzO4TFht-463" value="1" style="text;html=1;strokeColor=none;fillColor=none;align=center;verticalAlign=middle;whiteSpace=wrap;rounded=0;" vertex="1" parent="WIyWlLk6GJQsqaUBKTNV-1">
          <mxGeometry x="310" y="780" width="60" height="30" as="geometry" />
        </mxCell>
        <mxCell id="5G5loBA5OLO2QzO4TFht-464" value="1" style="text;html=1;strokeColor=none;fillColor=none;align=center;verticalAlign=middle;whiteSpace=wrap;rounded=0;" vertex="1" parent="WIyWlLk6GJQsqaUBKTNV-1">
          <mxGeometry x="620" y="790" width="60" height="30" as="geometry" />
        </mxCell>
        <mxCell id="5G5loBA5OLO2QzO4TFht-465" value="1" style="text;html=1;strokeColor=none;fillColor=none;align=center;verticalAlign=middle;whiteSpace=wrap;rounded=0;" vertex="1" parent="WIyWlLk6GJQsqaUBKTNV-1">
          <mxGeometry x="750" y="790" width="60" height="30" as="geometry" />
        </mxCell>
        <mxCell id="5G5loBA5OLO2QzO4TFht-466" value="1" style="text;html=1;strokeColor=none;fillColor=none;align=center;verticalAlign=middle;whiteSpace=wrap;rounded=0;" vertex="1" parent="WIyWlLk6GJQsqaUBKTNV-1">
          <mxGeometry x="750" y="940" width="60" height="30" as="geometry" />
        </mxCell>
        <mxCell id="W_27xC_w6vFsnOP9Zkxj-0" value="" style="endArrow=none;html=1;rounded=0;exitX=0.438;exitY=0.001;exitDx=0;exitDy=0;exitPerimeter=0;" edge="1" parent="WIyWlLk6GJQsqaUBKTNV-1" source="zkfFHV4jXpPFQw0GAbJ--0">
          <mxGeometry width="50" height="50" relative="1" as="geometry">
            <mxPoint x="850" y="860" as="sourcePoint" />
            <mxPoint x="958" y="450" as="targetPoint" />
          </mxGeometry>
        </mxCell>
        <mxCell id="W_27xC_w6vFsnOP9Zkxj-1" value="1" style="text;html=1;strokeColor=none;fillColor=none;align=center;verticalAlign=middle;whiteSpace=wrap;rounded=0;" vertex="1" parent="WIyWlLk6GJQsqaUBKTNV-1">
          <mxGeometry x="940" y="450" width="60" height="20" as="geometry" />
        </mxCell>
        <mxCell id="W_27xC_w6vFsnOP9Zkxj-2" value="1" style="text;html=1;strokeColor=none;fillColor=none;align=center;verticalAlign=middle;whiteSpace=wrap;rounded=0;" vertex="1" parent="WIyWlLk6GJQsqaUBKTNV-1">
          <mxGeometry x="940" y="530" width="60" height="30" as="geometry" />
        </mxCell>
        <mxCell id="W_27xC_w6vFsnOP9Zkxj-3" value="" style="endArrow=none;html=1;rounded=0;entryX=0.419;entryY=1.017;entryDx=0;entryDy=0;entryPerimeter=0;exitX=1.006;exitY=0.067;exitDx=0;exitDy=0;exitPerimeter=0;" edge="1" parent="WIyWlLk6GJQsqaUBKTNV-1" source="5G5loBA5OLO2QzO4TFht-423" target="5G5loBA5OLO2QzO4TFht-405">
          <mxGeometry width="50" height="50" relative="1" as="geometry">
            <mxPoint x="800" y="960" as="sourcePoint" />
            <mxPoint x="850" y="910" as="targetPoint" />
          </mxGeometry>
        </mxCell>
        <mxCell id="W_27xC_w6vFsnOP9Zkxj-4" value="1" style="text;html=1;strokeColor=none;fillColor=none;align=center;verticalAlign=middle;whiteSpace=wrap;rounded=0;" vertex="1" parent="WIyWlLk6GJQsqaUBKTNV-1">
          <mxGeometry x="1390" y="600" width="60" height="30" as="geometry" />
        </mxCell>
        <mxCell id="W_27xC_w6vFsnOP9Zkxj-6" value="1" style="text;html=1;strokeColor=none;fillColor=none;align=center;verticalAlign=middle;whiteSpace=wrap;rounded=0;" vertex="1" parent="WIyWlLk6GJQsqaUBKTNV-1">
          <mxGeometry x="1010" y="1090" width="60" height="30" as="geometry" />
        </mxCell>
        <mxCell id="W_27xC_w6vFsnOP9Zkxj-8" value="" style="endArrow=none;html=1;rounded=0;exitX=1.017;exitY=0.856;exitDx=0;exitDy=0;exitPerimeter=0;" edge="1" parent="WIyWlLk6GJQsqaUBKTNV-1" source="5G5loBA5OLO2QzO4TFht-430">
          <mxGeometry width="50" height="50" relative="1" as="geometry">
            <mxPoint x="480" y="1483" as="sourcePoint" />
            <mxPoint x="1350" y="1480" as="targetPoint" />
          </mxGeometry>
        </mxCell>
        <mxCell id="W_27xC_w6vFsnOP9Zkxj-9" value="1" style="text;html=1;strokeColor=none;fillColor=none;align=center;verticalAlign=middle;whiteSpace=wrap;rounded=0;" vertex="1" parent="WIyWlLk6GJQsqaUBKTNV-1">
          <mxGeometry x="460" y="1450" width="60" height="30" as="geometry" />
        </mxCell>
        <mxCell id="W_27xC_w6vFsnOP9Zkxj-11" value="1" style="text;html=1;strokeColor=none;fillColor=none;align=center;verticalAlign=middle;whiteSpace=wrap;rounded=0;" vertex="1" parent="WIyWlLk6GJQsqaUBKTNV-1">
          <mxGeometry x="1310" y="1480" width="60" height="30" as="geometry" />
        </mxCell>
        <mxCell id="W_27xC_w6vFsnOP9Zkxj-12" value="" style="endArrow=none;html=1;rounded=0;exitX=0;exitY=0;exitDx=0;exitDy=0;" edge="1" parent="WIyWlLk6GJQsqaUBKTNV-1" source="5G5loBA5OLO2QzO4TFht-428">
          <mxGeometry width="50" height="50" relative="1" as="geometry">
            <mxPoint x="640" y="1350" as="sourcePoint" />
            <mxPoint x="220" y="540" as="targetPoint" />
          </mxGeometry>
        </mxCell>
        <mxCell id="W_27xC_w6vFsnOP9Zkxj-13" value="1" style="text;html=1;strokeColor=none;fillColor=none;align=center;verticalAlign=middle;whiteSpace=wrap;rounded=0;" vertex="1" parent="WIyWlLk6GJQsqaUBKTNV-1">
          <mxGeometry x="200" y="540" width="60" height="30" as="geometry" />
        </mxCell>
        <mxCell id="W_27xC_w6vFsnOP9Zkxj-14" value="1" style="text;html=1;strokeColor=none;fillColor=none;align=center;verticalAlign=middle;whiteSpace=wrap;rounded=0;" vertex="1" parent="WIyWlLk6GJQsqaUBKTNV-1">
          <mxGeometry x="280" y="1300" width="60" height="30" as="geometry" />
        </mxCell>
        <mxCell id="W_27xC_w6vFsnOP9Zkxj-15" value="" style="endArrow=none;html=1;rounded=0;entryX=0;entryY=0;entryDx=0;entryDy=0;" edge="1" parent="WIyWlLk6GJQsqaUBKTNV-1" target="5G5loBA5OLO2QzO4TFht-422">
          <mxGeometry width="50" height="50" relative="1" as="geometry">
            <mxPoint x="634" y="930" as="sourcePoint" />
            <mxPoint x="690" y="1050" as="targetPoint" />
          </mxGeometry>
        </mxCell>
        <mxCell id="W_27xC_w6vFsnOP9Zkxj-16" value="1" style="text;html=1;strokeColor=none;fillColor=none;align=center;verticalAlign=middle;whiteSpace=wrap;rounded=0;" vertex="1" parent="WIyWlLk6GJQsqaUBKTNV-1">
          <mxGeometry x="740" y="1080" width="60" height="30" as="geometry" />
        </mxCell>
        <mxCell id="W_27xC_w6vFsnOP9Zkxj-17" value="1" style="text;html=1;strokeColor=none;fillColor=none;align=center;verticalAlign=middle;whiteSpace=wrap;rounded=0;" vertex="1" parent="WIyWlLk6GJQsqaUBKTNV-1">
          <mxGeometry x="620" y="910" width="60" height="30" as="geometry" />
        </mxCell>
        <mxCell id="W_27xC_w6vFsnOP9Zkxj-18" value="" style="endArrow=none;html=1;rounded=0;entryX=0.147;entryY=1.017;entryDx=0;entryDy=0;entryPerimeter=0;exitX=0.572;exitY=-0.004;exitDx=0;exitDy=0;exitPerimeter=0;" edge="1" parent="WIyWlLk6GJQsqaUBKTNV-1" source="5G5loBA5OLO2QzO4TFht-428" target="zkfFHV4jXpPFQw0GAbJ--11">
          <mxGeometry width="50" height="50" relative="1" as="geometry">
            <mxPoint x="570" y="980" as="sourcePoint" />
            <mxPoint x="620" y="930" as="targetPoint" />
          </mxGeometry>
        </mxCell>
        <mxCell id="W_27xC_w6vFsnOP9Zkxj-19" value="1" style="text;html=1;strokeColor=none;fillColor=none;align=center;verticalAlign=middle;whiteSpace=wrap;rounded=0;" vertex="1" parent="WIyWlLk6GJQsqaUBKTNV-1">
          <mxGeometry x="380" y="930" width="60" height="30" as="geometry" />
        </mxCell>
        <mxCell id="W_27xC_w6vFsnOP9Zkxj-20" value="1" style="text;html=1;strokeColor=none;fillColor=none;align=center;verticalAlign=middle;whiteSpace=wrap;rounded=0;" vertex="1" parent="WIyWlLk6GJQsqaUBKTNV-1">
          <mxGeometry x="360" y="1300" width="60" height="30" as="geometry" />
        </mxCell>
      </root>
    </mxGraphModel>
  </diagram>
</mxfile>
